<svg width="1200" height="800" viewBox="0 0 1200 800" xmlns="http://www.w3.org/2000/svg"><rect width="1200" height="800" fill="#05283A"/><g fill="none" stroke="#134356" stroke-opacity="0.35" stroke-width="1"><path d="M-100 150C100 60 240 260 430 150S760 80 960 170s290-40 390-120"/><path d="M-80 220C120 130 260 330 450 220s330-70 530 20 290-40 390-120"/><path d="M-40 300C160 210 300 410 490 300s330-70 530 20 290-40 390-120"/><path d="M-40 380C160 290 300 490 490 380s330-70 530 20 290-40 390-120"/><path d="M-40 460C160 370 300 570 490 460s330-70 530 20 290-40 390-120"/><path d="M-40 540C160 450 300 650 490 540s330-70 530 20 290-40 390-120"/><path d="M-40 620C160 530 300 730 490 620s330-70 530 20 290-40 390-120"/></g></svg>